<svg width="400" height="3189" viewBox="0 0 400 3189" fill="none" xmlns="http://www.w3.org/2000/svg">
   <path d="M161 5
       C199 42 246 24 286 17
       C386 0 388 125 265 261
       C166 369 160 464 169 498" stroke="#B0CC97" stroke-width="9" fill="none" stroke-linejoin="round" />
   <path d="M169 498
       C187.996 559 246.996 585 285.996 579
       C384.996 562 380.996 750 257.996 886
       C158.996 994 258.996 1053 306.996 1044
       C313.996 1043 319.996 1041 324.996 1038
       C361.996 1019 371.996 972 343.996 969
       C314.996 966 317.996 1001 324.996 1038
       C327.996 1057 332.996 1076 335.996 1091
       C347.996 1142 355.996 1254 292.996 1295
       C213.996 1345 106.996 1277 70.9963 1320
       C49.9963 1345 62.9963 1368 70.9963 1377
       C119.996 1439 386.996 1480 289.996 1583
       C218.996 1646 70.9961 1791 70.9961 1915
       C70.9961 2078 156.496 2092 248.496 2150
       C345.496 2211 340.943 2344 177.943 2365
       C98.9431 2375 58.9431 2424 48.9431 2459
       C45.1799 2473.05 42.3608 2490.69 42.9966 2510
       C44.8948 2567.67 47.5996 2626.29 177.947 2663
       C245.947 2682 314 2725.5 351 2818.5
       C416 2980.5 144 3134 -0.000488281 3171" stroke="#B0CC97" stroke-width="9" fill="none" stroke-linejoin="round" />
</svg>