<svg width="487" height="3333" viewBox="0 0 487 3333" fill="none" xmlns="http://www.w3.org/2000/svg">
    <!-- Top curved section -->
    <path d="M214 5
       C252 42 299 24 339 17
       C439 0 441 125 318 261
       C219 369 213 464 222 498" stroke="#B0CC97" stroke-width="8" fill="none" />

    <!-- Main long vertical section -->
    <path d="M223 498
       C242 560 301 586 340 580
       C439 563 435 751 312 887
       C213 995 313 1054 361 1045
       C368 1044 374 1042 379 1039
       C416 1020 426 973 398 970
       C369 967 372 1002 379 1039
       C382 1058 387 1077 390 1092
       C402 1143 410 1255 347 1296
       C268 1346 161 1278 125 1321
       C104 1346 117 1369 125 1378
       C174 1440 441 1481 344 1584
       C273 1647 4 1831 4 1955
       C4 2118 191 2093 283 2151
       C380 2212 356 2340 193 2361
       C114 2371 74 2420 64 2455
       C49 2511 49 2624 223 2673
       C291 2692 424 2720 461 2813
       C526 2975 440 3132 296 3169
       C195 3194 158 3225 158 3333" stroke="#B0CC97" stroke-width="8" fill="none" />
</svg>