<svg width="487" height="3333" viewBox="0 0 487 3333" fill="none" xmlns="http://www.w3.org/2000/svg">
    <path
        d="M214.685 2.86523C252.685 39.8652 299.768 21.6851 339.684 14.8652C439.185 -2.13477 441.684 122.865 318.184 258.365C219.384 366.765 213.351 461.532 222.684 495.365C240.34 559.365 300.268 586.685 340.185 579.865C439.685 562.865 435.185 750.365 311.685 885.865C212.885 994.265 313.136 1053.82 361.185 1044.87C367.697 1043.65 373.663 1041.59 379.049 1038.9M379.049 1038.9C415.846 1020.55 425.598 973.204 397.684 970.365C368.791 967.427 371.81 1002.07 379.049 1038.9ZM379.049 1038.9C382.708 1057.52 387.446 1076.7 389.685 1091.87C401.518 1142.87 409.385 1254.97 346.185 1295.37C267.185 1345.87 160.185 1277.87 124.685 1320.37C103.673 1345.52 117.067 1368.37 124.685 1377.87C174 1439.37 440.815 1480.37 343.815 1583.37C272.815 1646.37 3.99984 1830.37 4 1954.37C4.00021 2117.88 190.5 2092.87 283 2150.87C379.755 2211.53 355.855 2339.69 192.5 2360.37C113.5 2370.37 73.5 2419.87 63.5 2454.37C49 2510.37 48.8385 2623.37 222.339 2672.37C290.339 2691.57 423.757 2719.61 461 2812.87C525.5 2974.37 439.166 3131.93 294.839 3168.37C193.839 3193.87 156.839 3224.37 156.839 3332.87"
        stroke="#B0CC97" stroke-width="8" />
</svg>