
<svg width="1440" height="2612" viewBox="0 0 1440 2612" fill="none" xmlns="http://www.w3.org/2000/svg">
  <path
    d="M119.618 405.923C84.451 361.09 41.1885 259.093 119.618 178.423C207.118 88.4238 337.618 160.424 466.118 279.424C606.011 408.975 771.618 477.824 917.618 513.424C945.596 520.246 971.553 522.367 995.349 520.804 L995.349 520.804C1126.77 512.173 1192.25 391.155 1168.12 328.923C1139.62 255.423 1002.01 299.423 991.118 450.424C989.527 472.483 991.369 496.53 995.349 520.804 L995.349 520.804C1006.38 588.083 1035.5 656 1050.12 690.423L1151.12 938.923C1171.07 991 1213.62 1109.02 1237.62 1181.42C1267.62 1271.92 1260 1519 1043.94 1573.92C824.493 1629.71 603.057 1552.08 501.937 1698.42C422.128 1813.92 467.27 1925.26 478.437 1954.42C496.603 2003.92 539.891 2122.6 563.891 2195C593.891 2285.5 580.891 2514 361.891 2571.5C233.637 2605.17 104.396 2591.92 -1 2604.54"
    stroke="#B5D19C"
    stroke-width="14"
    fill="none"
    stroke-linejoin="round"/>
</svg>

