<svg width="1444" height="2609" viewBox="0 0 1444 2609" fill="none" xmlns="http://www.w3.org/2000/svg">
    <!-- First path (starts from left, top section) -->
    <path d="M121.878 403.923
       C86.7114 359.09 43.4489 257.093 121.878 176.423
       C209.378 86.4238 339.878 158.424 468.378 277.424
       C608.271 406.975 773.878 475.824 919.878 511.424
       C947.856 518.246 973.813 520.367 997.609 518.804
       C1129.03 510.173 1194.51 389.155 1170.38 326.923
       C1141.88 253.423 1004.27 297.423 993.378 448.424
       C991.787 470.483 993.629 494.53 997.609 518.804
       C1008.64 586.083 1037.76 654 1052.38 688.423
       L1138.37 900" stroke="#B5D19C" stroke-width="14" stroke-linejoin="round" fill="none" />

    <!-- Second path (reversed so it animates top → bottom) -->
    <path d="M1137.95 899
       L1152.95 935.923
       C1172.9 988 1215.45 1106.02 1239.45 1178.42
       C1269.45 1268.92 1261.83 1516 1045.77 1570.92
       C826.325 1626.71 604.889 1549.08 503.769 1695.42
       C423.96 1810.92 469.102 1922.26 480.269 1951.42
       C498.435 2000.92 541.723 2119.6 565.723 2192
       C595.723 2282.5 582.723 2511 363.723 2568.5
       C235.469 2602.17 106.228 2588.92 0.832031 2601.54" stroke="#B5D19C" stroke-width="14" stroke-linejoin="round"
        fill="none" />
</svg>