<svg width="1289" height="341" viewBox="0 0 1289 341" fill="none" xmlns="http://www.w3.org/2000/svg">
    <path
        d="M39.0938 173.691C36.7281 175.695 34.3338 177.329 31.911 178.595C29.4667 179.834 27.031 180.543 24.6039 180.72C22.1552 180.872 19.7269 180.351 17.3188 179.158L22.4364 171.352C23.7206 171.837 24.9539 172.081 26.1362 172.084C27.3223 172.041 28.6063 171.674 29.9879 170.985C31.348 170.27 32.9312 169.148 34.7372 167.618C36.9504 165.744 38.4246 164.081 39.1601 162.628C39.8955 161.176 39.9401 160.068 39.2939 159.304C38.7984 158.719 38.0985 158.46 37.1942 158.527C36.2899 158.594 34.9738 159.206 33.2459 160.364L25.1061 165.684C21.3312 168.138 18.0766 169.453 15.3421 169.628C12.6077 169.803 10.3035 168.784 8.42938 166.571C6.77072 164.613 5.98793 162.502 6.08103 160.239C6.15258 157.951 6.98749 155.584 8.58576 153.139C10.1879 150.646 12.4262 148.183 15.3007 145.749C17.3867 143.982 19.5539 142.518 21.8025 141.357C24.0766 140.174 26.3929 139.479 28.7515 139.273C31.1355 139.045 33.557 139.506 36.0159 140.656L31.2036 148.203C29.2342 147.425 27.3453 147.386 25.5369 148.088C23.754 148.768 21.7432 150.056 19.5047 151.951C17.6223 153.545 16.281 155.03 15.481 156.407C14.6848 157.736 14.5991 158.77 15.2238 159.507C15.7623 160.143 16.4984 160.394 17.432 160.258C18.3911 160.101 19.6583 159.509 21.2336 158.48L30.163 152.622C33.8146 150.229 36.9528 149.035 39.5777 149.04C42.2026 149.045 44.4197 150.115 46.2292 152.252C47.9094 154.236 48.7098 156.42 48.6305 158.802C48.5296 161.159 47.6526 163.605 45.9996 166.14C44.3465 168.676 42.0446 171.193 39.0938 173.691ZM65.0417 151.602L47.6288 129.548L36.5623 138.285L31.9767 132.477L61.9583 108.805L66.5439 114.613L55.4774 123.351L72.8903 145.405L65.0417 151.602ZM78.9034 140.653L71.9121 101.786L80.4682 95.5286L115.388 113.972L106.792 120.258L98.6851 115.78L85.1648 125.668L87.0156 134.721L78.9034 140.653ZM83.7337 118.29L92.1688 112.121L81.3601 106.15L83.7337 118.29ZM123.401 109.308L115.178 96.7624L88.2162 89.9234L98.2942 83.3176L115.386 87.7777L118.116 70.3253L128.026 63.8292L123.541 91.2805L131.764 103.826L123.401 109.308ZM154.126 89.594L152.568 50.1337L161.906 45.1178L193.945 68.2054L184.563 73.245L177.152 67.6904L162.396 75.6165L162.979 84.8383L154.126 89.594ZM161.997 68.1118L171.203 63.1668L161.323 55.7608L161.997 68.1118ZM196.536 67.1234L182.755 34.4076L191.97 30.5255L197.425 43.4736L213.921 36.5247L208.466 23.5766L217.682 19.6945L231.463 52.4104L222.248 56.2924L216.793 43.3443L200.297 50.2932L205.752 63.2413L196.536 67.1234ZM236.903 50.4823L226.992 16.394L258.68 7.18066L260.746 14.2864L238.66 20.7078L240.503 27.0454L260.428 21.2521L262.41 28.0698L242.485 33.863L244.439 40.5847L266.861 34.0656L268.927 41.1713L236.903 50.4823ZM270.239 40.7732L283.109 3.43843L293.631 2.15396L315.106 35.296L304.534 36.5865L299.645 28.721L283.018 30.7507L280.215 39.5554L270.239 40.7732ZM285.371 23.6131L295.744 22.3468L289.225 11.8594L285.371 23.6131ZM317.839 35.5293L320.457 0.125978L339.555 1.53834C344.242 1.88498 348.058 2.93597 351.003 4.6913C353.982 6.44909 356.136 8.73085 357.466 11.5366C358.799 14.3091 359.338 17.4073 359.085 20.8313C358.834 24.222 357.846 27.1906 356.12 29.7369C354.394 32.2832 351.929 34.2066 348.724 35.5071C345.553 36.8101 341.624 37.2883 336.937 36.9417L317.839 35.5293ZM328.357 28.887L336.784 29.5102C340.674 29.7978 343.613 29.1462 345.602 27.5552C347.625 25.9668 348.747 23.6766 348.968 20.6848L349.064 19.3883C349.29 16.33 348.519 13.8831 346.749 12.0476C345.013 10.2145 342.2 9.1542 338.311 8.86656L329.884 8.24335L328.357 28.887ZM392.491 45.3994C388.088 44.4718 384.498 42.9151 381.722 40.7292C378.986 38.5177 377.088 35.8865 376.027 32.8357C374.967 29.7849 374.797 26.5471 375.519 23.1222C376.247 19.6648 377.695 16.7508 379.864 14.3803C382.065 12.0166 384.88 10.3783 388.309 9.46547C391.737 8.55261 395.653 8.56001 400.056 9.48765C404.492 10.4222 408.078 11.9952 410.815 14.2067C413.59 16.3925 415.492 19.0074 416.52 22.0513C417.581 25.1022 417.743 28.3726 417.008 31.8627C416.286 35.2875 414.825 38.1817 412.624 40.5454C410.455 42.916 407.657 44.5577 404.228 45.4705C400.839 46.3576 396.927 46.3339 392.491 45.3994ZM394.058 37.9626C397.385 38.6635 400.209 38.3557 402.53 37.0393C404.858 35.6903 406.348 33.4664 407.001 30.3677L407.269 29.0957C407.922 25.997 407.452 23.3772 405.859 21.2362C404.273 19.0626 401.817 17.6253 398.49 16.9244C395.163 16.2235 392.335 16.5476 390.007 17.8967C387.686 19.2131 386.199 21.4207 385.546 24.5193L385.278 25.7914C384.625 28.89 385.092 31.5262 386.678 33.6998C388.271 35.8408 390.731 37.2618 394.058 37.9626ZM417.656 50.4198L428.82 16.7209L458.722 26.6271L456.395 33.6517L435.986 26.8903L433.564 34.1996L452.929 40.6151L450.697 47.3548L431.332 40.9394L427.149 53.5646L417.656 50.4198ZM470.064 70.636L482.497 45.4359L469.852 39.1976L473.126 32.5613L507.384 49.4621L504.11 56.0984L491.465 49.8601L479.032 75.0603L470.064 70.636ZM494.82 83.1939L513.834 53.2154L522.278 58.5716L514.753 70.4363L529.869 80.0238L537.394 68.1591L545.839 73.5152L526.825 103.494L518.38 98.1375L525.905 86.2728L510.79 76.6853L503.264 88.55L494.82 83.1939ZM531.574 106.785L552.958 78.4477L579.3 98.3255L574.842 104.232L556.483 90.3781L552.507 95.6465L569.071 108.145L564.794 113.813L548.231 101.314L544.014 106.901L562.653 120.966L558.195 126.873L531.574 106.785ZM585.664 150.913C582.439 148.119 580.058 145.064 578.521 141.747C577.031 138.428 576.463 135.113 576.817 131.803C577.218 128.489 578.64 125.422 581.085 122.6C583.529 119.779 586.352 117.946 589.553 117.102C592.778 116.281 596.13 116.383 599.606 117.411C603.107 118.459 606.471 120.381 609.695 123.175C612.517 125.619 614.649 128.172 616.092 130.834C617.535 133.495 618.338 136.132 618.502 138.743C618.687 141.329 618.266 143.699 617.238 145.852L609.066 141.616C609.672 139.848 609.851 138.216 609.602 136.722C609.375 135.202 608.826 133.8 607.954 132.515C607.107 131.253 606.067 130.087 604.832 129.017C603.169 127.576 601.394 126.546 599.507 125.925C597.641 125.278 595.801 125.162 593.987 125.575C592.199 126.011 590.552 127.097 589.046 128.836L588.391 129.592C586.907 131.305 586.066 133.09 585.868 134.947C585.717 136.801 586.083 138.618 586.967 140.398C587.873 142.153 589.157 143.751 590.819 145.191C592.054 146.261 593.356 147.124 594.727 147.782C596.122 148.462 597.578 148.819 599.092 148.852C600.629 148.86 602.229 148.439 603.893 147.587L609.25 155.072C607.265 156.396 604.969 157.163 602.361 157.373C599.775 157.559 597.051 157.139 594.189 156.115C591.327 155.091 588.486 153.357 585.664 150.913ZM604.527 166.497L628.479 140.295L635.86 147.042L611.908 173.244L604.527 166.497ZM616.169 177.208L640.571 151.424L656.477 166.477C659.915 169.731 661.795 172.909 662.116 176.013C662.484 179.115 661.351 182.058 658.716 184.843C656.814 186.852 654.749 188.064 652.521 188.479C650.316 188.917 647.997 188.604 645.563 187.539L642.68 202.297L634.4 194.461L637.224 181.438L631.268 175.802L623.433 184.082L616.169 177.208ZM650.737 171.233L642.748 163.672L636.183 170.608L644.173 178.169C646.666 180.529 648.956 180.608 651.041 178.405L651.384 178.042C653.446 175.863 653.231 173.593 650.737 171.233ZM659.504 219.687C656.457 216.7 654.269 213.504 652.939 210.099C651.656 206.694 651.293 203.351 651.85 200.069C652.454 196.786 654.063 193.812 656.677 191.146C659.291 188.481 662.221 186.825 665.467 186.181C668.738 185.559 672.076 185.868 675.482 187.107C678.913 188.37 682.151 190.495 685.198 193.482C687.864 196.096 689.835 198.775 691.111 201.52C692.387 204.266 693.026 206.947 693.029 209.563C693.054 212.156 692.488 214.495 691.33 216.58L683.434 211.85C684.148 210.122 684.426 208.504 684.27 206.997C684.137 205.467 683.675 204.033 682.884 202.698C682.117 201.385 681.15 200.157 679.984 199.014C678.413 197.473 676.705 196.335 674.859 195.599C673.037 194.839 671.207 194.61 669.372 194.911C667.56 195.235 665.849 196.218 664.239 197.86L663.539 198.575C661.952 200.193 661.002 201.923 660.691 203.765C660.426 205.606 660.68 207.442 661.452 209.273C662.248 211.08 663.431 212.754 665.002 214.294C666.168 215.438 667.415 216.38 668.742 217.121C670.093 217.886 671.524 218.331 673.033 218.458C674.567 218.56 676.19 218.238 677.903 217.49L682.789 225.292C680.726 226.491 678.387 227.115 675.771 227.164C673.178 227.19 670.486 226.603 667.692 225.405C664.899 224.207 662.17 222.301 659.504 219.687ZM689.895 249.764C687.166 247.025 685.168 244.311 683.9 241.621C682.68 238.932 682.308 236.291 682.784 233.7C683.26 231.108 684.738 228.577 687.218 226.107L702.308 211.074L709.366 218.158L694.594 232.874C693.484 233.979 692.704 235.109 692.254 236.263C691.804 237.417 691.814 238.655 692.283 239.976C692.752 241.296 693.809 242.783 695.456 244.436C697.079 246.066 698.55 247.117 699.87 247.591C701.212 248.089 702.461 248.115 703.617 247.669C704.796 247.247 705.941 246.483 707.051 245.378L721.822 230.663L728.703 237.57L713.613 252.603C711.134 255.073 708.597 256.541 706.003 257.008C703.41 257.474 700.759 257.08 698.051 255.826C695.39 254.571 692.671 252.551 689.895 249.764ZM707.399 266.458L732.384 241.239L739.488 248.277L719.711 268.239L734.843 283.23L729.635 288.487L707.399 266.458ZM730.124 288.996L764.627 269.785L773.32 275.852L767.19 314.864L758.456 308.769L760.065 299.649L746.33 290.063L738.365 294.748L730.124 288.996ZM752.845 286.318L761.415 292.298L763.56 280.138L752.845 286.318ZM769.715 315.855L783.196 283.015L803.456 291.331C807.834 293.128 810.732 295.417 812.15 298.197C813.61 300.958 813.613 304.112 812.157 307.658C811.107 310.218 809.617 312.092 807.687 313.282C805.788 314.484 803.511 315.027 800.857 314.91L803.481 329.716L792.935 325.387L790.881 312.221L783.295 309.107L778.966 319.653L769.715 315.855ZM799.813 297.835L789.637 293.658L786.01 302.492L796.186 306.67C799.363 307.973 801.527 307.222 802.678 304.416L802.868 303.953C804.008 301.178 802.989 299.139 799.813 297.835ZM828.98 335.864L833.073 300.601L865.853 304.406L865 311.757L842.153 309.105L841.392 315.661L862.004 318.053L861.185 325.106L840.573 322.713L839.766 329.667L862.96 332.359L862.107 339.71L828.98 335.864ZM886.723 339.486C882.461 339.666 878.632 339.078 875.238 337.72C871.876 336.328 869.189 334.306 867.175 331.656C865.193 328.971 864.122 325.763 863.965 322.033C863.807 318.303 864.602 315.033 866.352 312.223C868.134 309.412 870.642 307.187 873.876 305.549C877.143 303.909 880.908 302.999 885.17 302.819C888.9 302.661 892.203 303.055 895.079 304C897.955 304.946 900.349 306.313 902.259 308.1C904.169 309.854 905.488 311.867 906.218 314.138L897.367 316.665C896.595 314.963 895.605 313.653 894.398 312.737C893.19 311.787 891.829 311.144 890.313 310.808C888.831 310.471 887.274 310.336 885.642 310.406C883.444 310.499 881.445 310.967 879.646 311.81C877.845 312.621 876.427 313.798 875.392 315.344C874.389 316.887 873.937 318.808 874.034 321.106L874.077 322.105C874.173 324.37 874.786 326.246 875.916 327.733C877.079 329.185 878.592 330.255 880.456 330.943C882.319 331.598 884.349 331.879 886.547 331.786C888.179 331.717 889.719 331.452 891.168 330.99C892.65 330.527 893.953 329.788 895.078 328.773C896.201 327.724 897.076 326.319 897.702 324.558L906.735 326.327C906.199 328.652 905.055 330.786 903.302 332.728C901.548 334.637 899.279 336.202 896.495 337.42C893.711 338.639 890.453 339.328 886.723 339.486ZM930.688 334.157C926.271 335.017 922.358 334.981 918.951 334.048C915.569 333.077 912.796 331.392 910.631 328.995C908.467 326.598 907.05 323.682 906.381 320.246C905.705 316.778 905.905 313.53 906.979 310.502C908.086 307.468 910.041 304.863 912.844 302.687C915.646 300.511 919.256 298.994 923.673 298.133C928.123 297.267 932.038 297.319 935.419 298.291C938.827 299.223 941.597 300.891 943.729 303.295C945.894 305.692 947.317 308.641 947.999 312.142C948.668 315.577 948.449 318.812 947.342 321.846C946.268 324.874 944.329 327.476 941.527 329.652C938.751 331.788 935.138 333.29 930.688 334.157ZM929.235 326.697C932.572 326.047 935.054 324.664 936.679 322.547C938.298 320.398 938.805 317.77 938.2 314.661L937.951 313.385C937.346 310.277 935.893 308.047 933.592 306.695C931.285 305.311 928.463 304.943 925.126 305.593C921.788 306.243 919.31 307.643 917.691 309.792C916.066 311.908 915.555 314.52 916.161 317.629L916.409 318.905C917.015 322.013 918.471 324.259 920.778 325.644C923.079 326.996 925.898 327.347 929.235 326.697ZM955.678 328.314L944.646 294.572L954.389 291.387L976.731 305.019L976.779 305.003L970.595 286.088L979.434 283.198L990.466 316.941L983.195 319.318L957.449 303.643L957.401 303.658L964.518 325.424L955.678 328.314ZM1014.25 307.301C1010.14 309.136 1006.32 309.984 1002.79 309.845C999.276 309.662 996.194 308.648 993.544 306.801C990.894 304.955 988.856 302.434 987.428 299.238C985.987 296.012 985.448 292.803 985.811 289.61C986.205 286.404 987.521 283.425 989.76 280.673C991.998 277.921 995.172 275.627 999.281 273.792C1003.42 271.943 1007.25 271.11 1010.76 271.293C1014.29 271.432 1017.37 272.432 1019.98 274.292C1022.63 276.138 1024.69 278.689 1026.14 281.946C1027.57 285.142 1028.09 288.343 1027.69 291.548C1027.33 294.741 1026.03 297.713 1023.79 300.465C1021.57 303.174 1018.39 305.452 1014.25 307.301ZM1011.15 300.362C1014.25 298.975 1016.36 297.067 1017.46 294.639C1018.56 292.18 1018.46 289.504 1017.16 286.613L1016.63 285.426C1015.34 282.535 1013.42 280.69 1010.88 279.893C1008.32 279.065 1005.48 279.344 1002.38 280.731C999.276 282.118 997.178 284.04 996.086 286.5C994.98 288.928 995.073 291.588 996.365 294.48L996.895 295.667C998.186 298.558 1000.11 300.418 1002.67 301.246C1005.22 302.043 1008.04 301.748 1011.15 300.362ZM1037.32 296.008L1019.54 265.282L1032.61 257.719L1055.25 273.093L1055.3 273.068L1053.25 245.772L1066.41 238.159L1084.19 268.885L1075.53 273.894L1062.36 251.131L1062.31 251.156L1064.41 280.33L1056.49 284.913L1032.24 268.561L1032.2 268.586L1045.37 291.349L1037.32 296.008ZM1102.11 256.613L1093.49 244.335L1066.33 238.354L1076.19 231.432L1093.42 235.348L1095.59 217.818L1105.29 211.011L1101.68 238.59L1110.3 250.869L1102.11 256.613ZM1160.25 212.657C1156.99 215.416 1153.61 217.301 1150.1 218.312C1146.59 219.276 1143.22 219.33 1140.01 218.474C1136.79 217.57 1133.98 215.695 1131.57 212.847C1129.15 209.999 1127.77 206.929 1127.43 203.637C1127.11 200.324 1127.73 197.028 1129.27 193.75C1130.85 190.45 1133.26 187.421 1136.52 184.662C1139.36 182.248 1142.21 180.531 1145.06 179.513C1147.91 178.495 1150.64 178.105 1153.25 178.343C1155.83 178.556 1158.11 179.335 1160.08 180.68L1154.64 188.107C1152.99 187.238 1151.4 186.811 1149.89 186.828C1148.35 186.82 1146.88 187.148 1145.48 187.813C1144.1 188.456 1142.79 189.306 1141.54 190.362C1139.87 191.785 1138.58 193.381 1137.67 195.151C1136.75 196.896 1136.35 198.697 1136.48 200.552C1136.64 202.386 1137.46 204.18 1138.95 205.935L1139.59 206.697C1141.06 208.426 1142.7 209.531 1144.5 210.011C1146.31 210.444 1148.16 210.36 1150.06 209.759C1151.93 209.133 1153.7 208.109 1155.38 206.686C1156.63 205.63 1157.68 204.475 1158.54 203.222C1159.43 201.947 1160 200.563 1160.27 199.071C1160.51 197.554 1160.34 195.908 1159.75 194.133L1167.97 189.986C1168.97 192.15 1169.38 194.537 1169.19 197.146C1168.98 199.73 1168.14 202.358 1166.69 205.029C1165.24 207.7 1163.09 210.243 1160.25 212.657ZM1192.16 184.167C1189.34 186.809 1186.56 188.723 1183.83 189.907C1181.11 191.043 1178.46 191.334 1175.88 190.777C1173.31 190.221 1170.82 188.665 1168.43 186.111L1153.87 170.562L1161.17 163.728L1175.42 178.947C1176.49 180.091 1177.6 180.905 1178.74 181.391C1179.88 181.876 1181.11 181.905 1182.45 181.477C1183.78 181.05 1185.3 180.038 1187.01 178.443C1188.68 176.871 1189.78 175.434 1190.3 174.13C1190.83 172.803 1190.9 171.555 1190.49 170.386C1190.1 169.195 1189.38 168.027 1188.3 166.883L1174.05 151.664L1181.17 145L1195.73 160.548C1198.12 163.103 1199.51 165.683 1199.9 168.29C1200.28 170.897 1199.81 173.534 1198.47 176.203C1197.13 178.823 1195.03 181.478 1192.16 184.167ZM1209.31 167.118L1184.01 142.222L1199.37 126.61C1202.69 123.236 1205.9 121.419 1209.01 121.158C1212.12 120.849 1215.04 122.039 1217.77 124.728C1219.74 126.668 1220.92 128.756 1221.29 130.993C1221.68 133.205 1221.32 135.518 1220.21 137.931L1234.91 141.099L1226.92 149.226L1213.95 146.15L1208.2 151.995L1216.33 159.99L1209.31 167.118ZM1204.01 132.442L1196.3 140.283L1203.1 146.981L1210.82 139.139C1213.23 136.692 1213.35 134.404 1211.19 132.277L1210.83 131.926C1208.69 129.822 1206.42 129.994 1204.01 132.442ZM1246.1 128.81L1208.21 117.66L1215.56 109.609L1242.95 118.159L1231.91 91.6958L1238.85 84.0875L1253.41 120.796L1246.1 128.81ZM1266.89 105.876L1239.88 82.8394L1261.3 57.731L1266.93 62.533L1252 80.0328L1257.02 84.3156L1270.49 68.5278L1275.89 73.1351L1262.43 88.9229L1267.75 93.4653L1282.9 75.6993L1288.53 80.5013L1266.89 105.876Z"
        fill="black" />
</svg>